<svg xmlns="http://www.w3.org/2000/svg" fill="none" viewBox="0 0 128 128"><g id="thunderstorms-night-rain__thunderstorms-night-rain" clip-path="url(#thunderstorms-night-rain__clip0_1858_9939)"><g id="thunderstorms-night-rain__Sky"><g id="thunderstorms-night-rain__Moon"><path id="thunderstorms-night-rain__Moon_2" fill="url(#thunderstorms-night-rain__paint0_linear_1858_9939)" stroke="#72b9d5" stroke-linecap="round" stroke-linejoin="round" d="M35.115 34.595c-1.737 8.568 5.638 16.62 14.198 16.188-1.64 5.05-6.424 8.717-12.095 8.717-7.03 0-12.718-5.621-12.718-12.541 0-6.214 4.588-11.375 10.615-12.364"/></g><g id="thunderstorms-night-rain__Clouds"><g id="thunderstorms-night-rain__Cloud"><path id="thunderstorms-night-rain__Cloud_2" fill="url(#thunderstorms-night-rain__paint1_linear_1858_9939)" stroke="#e6effc" stroke-miterlimit="10" d="M55.263 48.475c4.86-7.864 15.035-11.095 23.552-7.532 8.507 3.56 13.323 13.06 11.088 22.022l-.161.65.669-.03c7.01-.306 13.089 5.407 13.089 12.443 0 6.811-5.728 12.472-12.523 12.472H37.954c-6.826.002-12.751-5.33-13.395-12.14-.643-6.808 4.178-13.148 10.884-14.415l.483-.092-.084-.484c-.816-4.745 1.284-9.652 5.263-12.356 3.99-2.712 9.341-2.86 13.475-.373l.423.255z"/></g></g></g><g id="thunderstorms-night-rain__Precipitation"><g id="thunderstorms-night-rain__Raindrops"><path id="thunderstorms-night-rain__Raindrop 1" stroke="#0a5ad4" stroke-linecap="round" stroke-width="4" d="M52 83v12" transform="translate(0 8)"/><path id="thunderstorms-night-rain__Raindrop 2" stroke="#0a5ad4" stroke-linecap="round" stroke-width="4" d="M64 83v12"/><path id="thunderstorms-night-rain__Raindrop 3" stroke="#0a5ad4" stroke-linecap="round" stroke-width="4" d="M76 83v12" transform="translate(0 8)"/></g></g><g id="thunderstorms-night-rain__Lightning"><path id="thunderstorms-night-rain__Lightning Bolt" fill="url(#thunderstorms-night-rain__paint2_linear_1858_9939)" stroke="#f6a823" stroke-miterlimit="10" d="m71.173 68.5-7.616 14.541-.384.731h11.829l-18.05 24.12 3.537-16.88.127-.603h-7.912L60.355 68.5z"/></g></g><defs><linearGradient id="thunderstorms-night-rain__paint0_linear_1858_9939" x1="37" x2="37" y1="34" y2="60" gradientUnits="userSpaceOnUse"><stop stop-color="#86c3db"/><stop offset="1" stop-color="#72b9d5"/></linearGradient><linearGradient id="thunderstorms-night-rain__paint1_linear_1858_9939" x1="64.001" x2="64.001" y1="39" y2="89" gradientUnits="userSpaceOnUse"><stop stop-color="#f3f7fe"/><stop offset="1" stop-color="#e6effc"/></linearGradient><linearGradient id="thunderstorms-night-rain__paint2_linear_1858_9939" x1="64.528" x2="84.414" y1="66.038" y2="77.457" gradientUnits="userSpaceOnUse"><stop stop-color="#f7b23b"/><stop offset="1" stop-color="#f6a823"/></linearGradient><clipPath id="thunderstorms-night-rain__clip0_1858_9939"><rect width="128" height="128" fill="#fff"/></clipPath></defs></svg>